<svg width="512" height="512" viewBox="0 0 512 512" fill="none" xmlns="http://www.w3.org/2000/svg">
  <rect width="512" height="512" rx="48" fill="black"/>
  <circle cx="105" cy="164" r="38" fill="white"/>
  <path d="M181 358C154 295 156 222 200 172C241 124 312 99 409 88C331 120 271 156 230 209C202 245 188 291 181 358Z" fill="white"/>
  <path d="M216 292C213 233 237 188 289 158C330 135 368 128 416 128C367 141 326 161 291 190C255 220 230 254 216 292Z" fill="white"/>
  <path d="M134 227C149 291 188 340 256 392C223 354 204 322 196 293C186 259 185 220 193 176C173 192 143 214 134 227Z" fill="white"/>
</svg>